<svg xmlns="http://www.w3.org/2000/svg" version="1.1" xmlns:xlink="http://www.w3.org/1999/xlink" viewBox="0 0 6.562584755848548 7.361462774299749"><g transform="matrix(1,0,0,1,0.5790218701117742,5.509491685437975)"><g clip-path="url(#SvgjsClipPath1001)"><g clip-path="url(#SvgjsClipPath10001b64a9e5-0951-4a7e-806d-09289d263b88)"><path d=" M 4.871102872716829 -1.907354361607009 C 4.943494139193874 -2.234519201698311 4.94427421749643 -2.576817560859167 4.8728190449824496 -2.9049184949135327 C 4.641447820444824 -3.9681652212951346 3.6839797118895947 -4.739818678181914 2.596394542468297 -4.739818678181914 C 2.4305498953452385 -4.739818678181914 2.2637691542591147 -4.721876877223163 2.1004207577042306 -4.686305306626684 C 1.4707415518823455 -4.549323556698138 0.9125175185744414 -4.141030573141182 0.5850406471621181 -3.583898649456853 C 0.8878670442137231 -4.243376846436314 1.4797904601919765 -4.722812971186229 2.1901297624979827 -4.877424490752504 C 2.351761986787248 -4.91252801436745 2.5168265556077514 -4.930469815326201 2.680955030465191 -4.930469815326201 C 3.198614992040268 -4.930469815326201 3.7086301862503124 -4.75167586838074 4.116923169807269 -4.4268512631971015 C 4.5309887328031255 -4.097502203858649 4.820865830032329 -3.6316394415731805 4.933353121260668 -3.1149155739611682 C 5.02103392246778 -2.7111470445590284 4.9993477456567685 -2.2963014032606166 4.871102872716829 -1.907354361607009 Z" fill="#a4cb6a" transform="matrix(1,0,0,1,0,0)" fill-rule="nonzero"></path></g><g clip-path="url(#SvgjsClipPath10001b64a9e5-0951-4a7e-806d-09289d263b88)"><path d=" M 4.052332686355766 -0.6813833013125663 C 3.8117565378479994 -0.4944765400205391 3.5299922549653617 -0.3624872912283408 3.2307542181055076 -0.2974287607953059 C 3.0864397321329498 -0.266069613032621 2.9391609486106853 -0.25 2.792974274711997 -0.25 L 2.792818259051486 -0.25 C 2.3327280762049205 -0.25 1.879658598081345 -0.4088239424000699 1.517390234375097 -0.6974529143451855 C 1.2409304839498294 -0.9174349956655172 1.0268769977289112 -1.2063759989316543 0.8950437645972233 -1.531980682417847 C 0.8516714109752008 -1.6388514098677955 0.8171919500022976 -1.7499345601515368 0.7923854599810688 -1.863825992324474 C 0.7916053816785144 -1.8675703681767355 0.7906692877154494 -1.8711587283684858 0.7902012407339165 -1.874903104220746 C 0.7179659899173823 -2.2162653694185366 0.7334115403079586 -2.567456621228512 0.8346657039795153 -2.8982098215115637 C 0.8458988315362981 -2.934873501731619 0.8582240687166572 -2.971537181951674 0.8716414155205923 -3.0075767995296863 C 0.8925475140290495 -3.0643664999556433 0.9161058787661911 -3.1202201064185364 0.9423165097320182 -3.1749816032578524 C 1.0443507517061295 -3.3909072774049016 1.1838287522028499 -3.588111072290645 1.3534177751781695 -3.7562959543213665 C 1.230945481677134 -3.6062088889099067 1.1310954589501747 -3.4408322887683807 1.055895910583934 -3.265938733335692 C 1.0245367628212485 -3.1930794198771144 0.9972340222318459 -3.1183479184924052 0.9744557357972583 -3.0423682918236095 C 0.8916114200659842 -2.766064557058853 0.86586883608169 -2.4725990996379004 0.9033125946042999 -2.1813178614641004 C 0.9109573619693325 -2.1220319104699676 0.9209423642420286 -2.062745959475836 0.9338916640644311 -2.003772039802726 C 0.9404443218058874 -1.9733489860031055 0.9477770578498986 -1.9432379635245076 0.9555778408754424 -1.9134389723669303 C 0.9555778408754424 -1.9134389723669303 0.9557338565359529 -1.9134389723669303 0.9555778408754424 -1.9132829567064191 C 1.1292232710240442 -1.2597333548263716 1.613339865589284 -0.7417613619302719 2.2239851608288426 -0.5071138085219182 C 2.23787055461431 -0.5018092760645496 2.2519119640602887 -0.4965047436071792 2.266109389166778 -0.49151224247083114 C 2.484219282560979 -0.4128803495733502 2.717618710685246 -0.37044408991439326 2.958194859193012 -0.37044408991439326 C 3.1064097366783425 -0.37044408991439326 3.2554046924662265 -0.38666971860752497 3.401279335043892 -0.4183408976912313 C 3.6345227475076483 -0.46935801867828975 3.853100687883381 -0.5576628825274437 4.052332686355766 -0.6813833013125663 Z" fill="#a4cb6a" transform="matrix(1,0,0,1,0,0)" fill-rule="nonzero"></path></g><g clip-path="url(#SvgjsClipPath10001b64a9e5-0951-4a7e-806d-09289d263b88)"><path d=" M 2.5035652244643267 -1.7057821282269607 C 2.1462893618944268 -1.9235799903001394 1.9197546228326388 -2.3159593764849866 1.9083654796153449 -2.787438702548845 C 2.099016616759632 -2.129676677835003 2.5347683565665013 -1.7260641640933745 3.2352786722603226 -1.7447860433546785 C 3.242923439625355 -1.7388574482552661 3.480223259262394 -1.5620917048964467 3.4942646687083725 -1.551326624321196 C 3.5792932036867984 -1.4876722348327598 3.6622935350785824 -1.421053547794617 3.746541991754455 -1.356463064343115 C 3.746541991754455 -1.356463064343115 3.7588672289348137 -1.329004308093202 3.7588672289348137 -1.329004308093202 C 3.854348813167469 -1.1286801999972411 4.024873930105853 -0.9809333694934428 4.246260152370783 -1.1126105869646206 L 4.286044145801056 -1.1310204349049036 C 4.286044145801056 -1.1310204349049036 4.311630714124839 -1.1258719181080452 4.311630714124839 -1.1258719181080452 C 4.57810546227741 -1.0820315175044897 4.720859791644859 -1.2332106925395259 4.726944402404783 -1.495160986537282 C 4.726944402404783 -1.495160986537282 4.729284637312446 -1.5190313825954456 4.729284637312446 -1.5190313825954456 C 4.8516009151529715 -1.6226257811746652 4.7888826196276 -1.7413536988234397 4.66563024782401 -1.8076603545405616 C 4.830226769662982 -1.7705286273389733 4.909014678220972 -1.6296464858976547 4.815249266253938 -1.4868921565302058 C 4.831318879286558 -1.344605874144289 4.815873328895982 -1.1945188087328291 4.71212291465625 -1.082343548825511 C 4.610556719663672 -0.972508523825856 4.468582468598777 -0.9353767966242676 4.323487904323665 -0.9381850785134636 C 4.030022446902711 -0.7464418317456003 3.71003432719491 -0.9155628077393878 3.563847653296222 -1.2080921711972747 C 3.4934845904058185 -1.2608254644499501 3.42249746487337 -1.3126226637395595 3.3532265116065423 -1.3664480666158108 L 3.1525903721895596 -1.522619742787195 C 3.0132683873533495 -1.525428024676391 2.8819032012031935 -1.5480502954504676 2.760210986004713 -1.5878342888807402 C 2.773628332808648 -1.5566311567785656 2.7906340398043334 -1.5252720090158798 2.813880373220454 -1.4929767672901293 C 3.0115522150877307 -1.232430614236971 3.409704180711479 -1.0079240787618247 3.3866138629558695 -0.6298981333439784 C 3.2365267975444096 -1.0974770678950656 2.529619839769643 -1.1854699004231972 2.5035652244643267 -1.7057821282269607 Z" fill="#64c6c4" transform="matrix(1,0,0,1,0,0)" fill-rule="nonzero"></path></g><g clip-path="url(#SvgjsClipPath10001b64a9e5-0951-4a7e-806d-09289d263b88)"><path d=" M 2.275626344457941 -0.36576362009906926 C 2.260180794067365 -0.4141284748574412 2.243019071411169 -0.4614012199922355 2.223829145168332 -0.5074258398429423 C 2.157054442469678 -0.6687460328111854 2.0682815316389904 -0.8157127850124279 1.9640630704177273 -0.9516024253173989 C 1.6851070694242856 -1.3575551739666918 0.9611944046538333 -1.8098445737877134 1.1423285865069572 -2.37555735880014 C 1.060264349078238 -2.2290586535804295 0.9978580848738885 -2.0741351026931323 0.955577840875442 -1.9137510036879544 C 0.955577840875442 -1.9137510036879544 0.9557338565359526 -1.9137510036879544 0.955577840875442 -1.9135949880274437 C 0.9229705678286694 -1.7892505066002768 0.9026885319622561 -1.6616296963023833 0.8951997802577338 -1.531980682417848 C 0.8518274266357111 -1.6388514098677964 0.8173479656628078 -1.7499345601515377 0.7925414756415794 -1.8638259923244749 C 0.791761397339025 -1.8675703681767364 0.7908253033759596 -1.8711587283684867 0.790357256394427 -1.8749031042207465 C 0.8162558560392319 -1.9811497690286513 0.8535435989013308 -2.084276120626339 0.9033125946042995 -2.181473877124612 C 1.0026945703497259 -2.3764934527632042 1.1507534321745445 -2.5492027889487407 1.353261759517658 -2.6824401630250265 C 1.2961600277706786 -2.583526234261133 1.2451429067836226 -2.482584101910598 1.2233007143121004 -2.377897593707802 C 1.1493492912299463 -2.0413718139858488 1.4281492765628772 -1.78613019339006 1.6333098701346758 -1.5561631097970325 C 1.908677510936367 -1.26098148011046 2.2085396104382653 -0.9068259307507782 2.2661093891667776 -0.4918242737918552 C 2.2717259529451694 -0.45048012375647417 2.2750022818158975 -0.4085119110790485 2.275626344457941 -0.36576362009906926 Z" fill="#64c6c4" transform="matrix(1,0,0,1,0,0)" fill-rule="nonzero"></path></g><g clip-path="url(#SvgjsClipPath10001b64a9e5-0951-4a7e-806d-09289d263b88)"><path d=" M 2.0103997215894562 -1.8515007551441163 C 2.1458213149128946 -1.362547675103039 3.0048435416857626 -1.0973210522345536 2.7598989546836914 -0.5259917034437365 C 2.772536223185073 -0.8118123934996557 2.565659457347655 -0.9647077408003124 2.379688790018694 -1.1447498130298603 C 2.191065856461048 -1.3215155563886793 1.9737360413694014 -1.570828581885055 2.0103997215894562 -1.8515007551441163 Z" fill="#64c6c4" transform="matrix(1,0,0,1,0,0)" fill-rule="nonzero"></path></g><g clip-path="url(#SvgjsClipPath10001b64a9e5-0951-4a7e-806d-09289d263b88)"><path d=" M 1.5766761853692286 -3.5180600407212648 C 1.3601264485801363 -3.3731214921066632 1.155901948971403 -3.218353956879877 0.9742997201367469 -3.042524307484123 C 0.926090881038887 -2.9961876563123937 0.8794421985461356 -2.948134832875044 0.8346657039795153 -2.8982098215115655 C 0.8458988315362981 -2.9348735017316203 0.8582240687166572 -2.9715371819516756 0.8716414155205923 -3.007576799529687 C 0.8925475140290495 -3.0643664999556446 0.9161058787661911 -3.1202201064185378 0.9423165097320182 -3.174981603257854 C 0.9786681586310518 -3.2069648136625832 1.0165799641351938 -3.2372318518016927 1.0557398949234231 -3.2659387333356937 C 1.2140957903419594 -3.3815463377742505 1.3932017686084417 -3.4681350293577857 1.5766761853692286 -3.5180600407212648 Z" fill="#64c6c4" transform="matrix(1,0,0,1,0,0)" fill-rule="nonzero"></path></g><g clip-path="url(#SvgjsClipPath10001b64a9e5-0951-4a7e-806d-09289d263b88)"><path d=" M 4.0298664312422 -2.8612341099704883 C 3.9972591581954284 -2.9075707611422175 4.002719706313308 -3.0106971127399045 3.962623681562014 -3.0751315805308956 C 3.91909531227948 -3.1550115987124627 3.8282941978621516 -3.1890230127038333 3.7638597300711614 -3.243628493882639 C 3.6847597901921487 -3.3013542882716616 3.6164249308883862 -3.370157194556957 3.5541746823445477 -3.445824789904731 C 3.4713303666132735 -3.558780128114603 3.3494821357542817 -3.636319911388507 3.21702483998055 -3.678756171047465 C 3.241363283020246 -4.024954921721093 3.1933104595828974 -4.337766321045394 2.8070156841579745 -4.119968458972215 C 2.7163705854011573 -4.336518195761307 2.5640993007425448 -4.352119761812394 2.3004328344791687 -4.001708588304973 C 2.0423829319941844 -4.125897054071627 1.6643569865763381 -4.0781562619553 1.4275252139208323 -4.217322231131 C 1.4275252139208323 -4.217322231131 1.2944438555050573 -4.309527486492925 1.2944438555050573 -4.309527486492925 C 1.2944438555050573 -4.309527486492925 1.2944438555050573 -4.3093714708324145 1.2944438555050573 -4.3093714708324145 C 1.2947558868260791 -4.30671920460373 1.2952239338076121 -4.303910922714534 1.2955359651286336 -4.3012586564858495 C 1.3025566698516222 -4.254141927011565 1.3442128512080258 -4.013565778503799 1.4824427264206597 -3.8712794961178822 C 1.4570121737573873 -3.8500613662884033 1.432361699396669 -3.8279071424958593 1.4081792720174842 -3.8054408873822934 C 1.4496794377133762 -3.8062209656848482 1.4913356190697795 -3.8119935451237503 1.5325237534446499 -3.8224465943779786 C 1.6030428319955647 -3.780322366040043 1.6843269911217296 -3.758480173568521 1.7623348213771663 -3.766905019236108 C 1.6344019797582503 -3.806845028326891 1.535020004012824 -3.9049788787882305 1.4858750709518989 -4.0244868747395595 C 1.8272373361496894 -3.8817325453721105 2.263613138598602 -4.0471091455136365 2.537108591474163 -3.7441267328015204 C 2.5107419448478256 -3.8162059679575435 2.4720500610411285 -3.8711234804573715 2.426025441190421 -3.915431928042459 C 2.4615970117868997 -3.974405847715569 2.501381005217173 -4.033223751728169 2.544129296197152 -4.084708919696757 C 2.5758004752808596 -4.11918838066966 2.6201089228659478 -4.175510034114085 2.6603609632777525 -4.171453626940802 C 2.769103878653831 -4.08361681007318 2.834786471728908 -3.8455369121335874 2.8971927359332574 -3.7168239922121167 C 2.885647577055453 -3.810433388518641 2.871450151948964 -3.895617939157578 2.853820382311236 -3.9698813935607538 C 2.911234145379237 -4.019962420584744 2.9922062731843804 -4.088453295549017 3.0644415240009146 -4.088297279888506 C 3.077702855144339 -4.086737123283397 3.1004811415789266 -4.064582899490853 3.11545864498797 -4.038996331167071 C 3.173964517679547 -3.9343098229642743 3.1959627258115804 -3.8029446368141193 3.2106281978996027 -3.680316327652572 C 3.1365207591569377 -3.7034066454081813 3.059449022864567 -3.7158878982490515 2.983781427516793 -3.7168239922121167 C 3.180517175421004 -3.648957179889887 3.359779169347998 -3.54052629583483 3.455104737920141 -3.3753057113538154 C 3.5122064696671207 -3.2816963150472915 3.5889661746384696 -3.1999441089395937 3.671498459048722 -3.1284889364256143 C 3.735620895518691 -3.061090171084917 3.8275141195595954 -3.052821341077841 3.8435837325922146 -2.948758895517088 C 3.8534127192043997 -2.9052305262345546 3.8616815492114767 -2.835647541646705 3.9044298401914554 -2.775269481028997 L 3.9930467353616317 -2.6442163261998637 C 4.171060604004538 -2.3891307212645847 4.351258691894596 -2.1413778523733185 4.560631708300187 -1.907354361607008 C 4.410232611567711 -2.23810756189006 4.223013818954662 -2.5554434153691767 4.0298664312422 -2.8612341099704883 Z" fill="#64c6c4" transform="matrix(1,0,0,1,0,0)" fill-rule="nonzero"></path></g><g clip-path="url(#SvgjsClipPath10001b64a9e5-0951-4a7e-806d-09289d263b88)"><path d=" M 1.8047710810361255 -4.266779195512946 C 1.9667153366464116 -4.348375385960132 2.1414528764185903 -4.410937665824993 2.326643465444997 -4.451345721897309 C 2.48094295369025 -4.484889088907147 2.6386747864667432 -4.501894795902832 2.7953145096196605 -4.501894795902832 C 3.044627535116036 -4.501894795902832 3.298465014767227 -4.457274316996722 3.5362328813857977 -4.372245782018297 C 3.242923439625355 -4.512971907799105 2.9202830536888693 -4.587079346541769 2.596238526807786 -4.587079346541769 C 2.4414709915809993 -4.587079346541769 2.2856113467306374 -4.570229655206595 2.133028030751003 -4.536998319517779 C 1.9278674371792044 -4.492377840611669 1.7358121590903193 -4.419830558474113 1.559826494034054 -4.324504989901969 C 1.6290974473008821 -4.296422171010012 1.7136579352977757 -4.28004052665637 1.8047710810361255 -4.266779195512946 Z" fill="#a4cb6a" transform="matrix(1,0,0,1,0,0)" fill-rule="nonzero"></path></g><g clip-path="url(#SvgjsClipPath10001b64a9e5-0951-4a7e-806d-09289d263b88)"><path d=" M 0.6432344885326733 -1.8313747349382132 C 0.47426952819939777 -2.6078646773008303 0.7393401354073714 -3.37967414984812 1.2754099449227323 -3.892653641607872 L 1.2754099449227323 -3.892653641607872 C 1.241554546591873 -3.937274120513982 1.216280009589111 -4.003736791891614 1.1972460990067848 -4.077532199313256 C 0.5983019783055421 -3.5737576315236463 0.2906390957780999 -2.762788228188127 0.46834093309998465 -1.9463582767347272 C 0.5929974458481724 -1.3737808026598226 0.9432526036950828 -0.8773389709142236 1.437042169211997 -0.567023822158097 C 1.0331176241493458 -0.8823314720505708 0.7530695135323284 -1.3269761045065591 0.6432344885326733 -1.8313747349382132 Z" fill="#a4cb6a" transform="matrix(1,0,0,1,0,0)" fill-rule="nonzero"></path></g></g><g><path d=" M 0.37646484375 1.27294921875 Q 0.34716796875 1.27294921875 0.3131103515625 1.2681884765625 Q 0.279052734375 1.263427734375 0.2449951171875 1.248046875 Q 0.2109375 1.232666015625 0.1798095703125 1.2044677734375 Q 0.148681640625 1.17626953125 0.1248779296875 1.130126953125 Q 0.10107421875 1.083984375 0.0867919921875 1.0162353515625 Q 0.072509765625 0.948486328125 0.072509765625 0.854736328125 L 0.072509765625 0.41162109375 Q 0.072509765625 0.317138671875 0.087158203125 0.2501220703125 Q 0.101806640625 0.18310546875 0.1259765625 0.1373291015625 Q 0.150146484375 0.091552734375 0.181640625 0.064453125 Q 0.213134765625 0.037353515625 0.246826171875 0.0230712890625 Q 0.280517578125 0.0087890625 0.3138427734375 0.00439453125 Q 0.34716796875 0 0.375732421875 0 Q 0.450439453125 0 0.5006103515625 0.0208740234375 Q 0.55078125 0.041748046875 0.5811767578125 0.0780029296875 Q 0.611572265625 0.1142578125 0.6243896484375 0.16259765625 Q 0.63720703125 0.2109375 0.63720703125 0.26513671875 Q 0.63720703125 0.305419921875 0.6331787109375 0.3394775390625 Q 0.629150390625 0.37353515625 0.62109375 0.41455078125 L 0.46728515625 0.41455078125 L 0.46728515625 0.350830078125 Q 0.46728515625 0.24755859375 0.444580078125 0.1962890625 Q 0.421875 0.14501953125 0.3779296875 0.14501953125 Q 0.3515625 0.14501953125 0.331787109375 0.1552734375 Q 0.31201171875 0.16552734375 0.298828125 0.1900634765625 Q 0.28564453125 0.214599609375 0.2786865234375 0.2548828125 Q 0.271728515625 0.295166015625 0.271728515625 0.355224609375 L 0.271728515625 0.926513671875 Q 0.271728515625 0.985107421875 0.2772216796875 1.02392578125 Q 0.28271484375 1.062744140625 0.295166015625 1.086181640625 Q 0.3076171875 1.109619140625 0.3277587890625 1.1195068359375 Q 0.347900390625 1.12939453125 0.37646484375 1.12939453125 Q 0.394775390625 1.12939453125 0.41162109375 1.1209716796875 Q 0.428466796875 1.112548828125 0.4412841796875 1.0946044921875 Q 0.4541015625 1.07666015625 0.4617919921875 1.0491943359375 Q 0.469482421875 1.021728515625 0.469482421875 0.984375 L 0.469482421875 0.862060546875 L 0.64306640625 0.862060546875 L 0.64306640625 0.977783203125 Q 0.64306640625 1.128662109375 0.57421875 1.200439453125 Q 0.50537109375 1.272216796875 0.37646484375 1.27294921875 M 0.79248046875 0.010986328125 L 0.982177734375 0.010986328125 L 0.982177734375 1.112548828125 L 1.24072265625 1.112548828125 L 1.24072265625 1.261962890625 L 0.79248046875 1.261962890625 L 0.79248046875 0.010986328125 M 1.36083984375 0.010986328125 L 1.824462890625 0.010986328125 L 1.824462890625 0.160400390625 L 1.550537109375 0.160400390625 L 1.550537109375 0.53466796875 L 1.76220703125 0.53466796875 L 1.76220703125 0.68408203125 L 1.550537109375 0.68408203125 L 1.550537109375 1.112548828125 L 1.831787109375 1.112548828125 L 1.831787109375 1.261962890625 L 1.36083984375 1.261962890625 L 1.36083984375 0.010986328125 M 2.1064453125 0.010986328125 L 2.32470703125 0.010986328125 L 2.55615234375 1.261962890625 L 2.3642578125 1.261962890625 L 2.329833984375 1.037841796875 L 2.101318359375 1.037841796875 L 2.068359375 1.261962890625 L 1.875732421875 1.261962890625 L 2.1064453125 0.010986328125 M 2.307861328125 0.89501953125 L 2.219970703125 0.271728515625 L 2.2119140625 0.271728515625 L 2.123291015625 0.89501953125 L 2.307861328125 0.89501953125 M 2.677001953125 0.010986328125 L 2.830810546875 0.010986328125 L 3.134033203125 0.84814453125 L 3.138427734375 0.84814453125 Q 3.13623046875 0.81884765625 3.132568359375 0.782958984375 Q 3.12890625 0.7470703125 3.1259765625 0.7012939453125 Q 3.123046875 0.655517578125 3.120849609375 0.59765625 Q 3.11865234375 0.539794921875 3.11865234375 0.46728515625 L 3.11865234375 0.010986328125 L 3.28857421875 0.010986328125 L 3.28857421875 1.261962890625 L 3.13330078125 1.261962890625 L 2.83154296875 0.44677734375 L 2.82568359375 0.44677734375 Q 2.827880859375 0.479736328125 2.83154296875 0.5181884765625 Q 2.835205078125 0.556640625 2.838134765625 0.608642578125 Q 2.841064453125 0.66064453125 2.84326171875 0.7298583984375 Q 2.845458984375 0.799072265625 2.845458984375 0.894287109375 L 2.845458984375 1.261962890625 L 2.677001953125 1.261962890625 L 2.677001953125 0.010986328125 M 3.50244140625 0.010986328125 L 3.6943359375 0.010986328125 Q 3.73681640625 0.010986328125 3.7822265625 0.013916015625 Q 3.82763671875 0.016845703125 3.870849609375 0.0263671875 Q 3.9140625 0.035888671875 3.952880859375 0.0545654296875 Q 3.99169921875 0.0732421875 4.0206298828125 0.104736328125 Q 4.049560546875 0.13623046875 4.0667724609375 0.1827392578125 Q 4.083984375 0.229248046875 4.083984375 0.29443359375 L 4.083984375 0.355224609375 Q 4.083984375 0.405029296875 4.0697021484375 0.44677734375 Q 4.055419921875 0.488525390625 4.031982421875 0.5203857421875 Q 4.008544921875 0.55224609375 3.978515625 0.5731201171875 Q 3.948486328125 0.593994140625 3.9169921875 0.601318359375 L 3.9169921875 0.607177734375 Q 4.010009765625 0.6240234375 4.0572509765625 0.6954345703125 Q 4.1044921875 0.766845703125 4.1044921875 0.878173828125 L 4.1044921875 0.94189453125 Q 4.1044921875 1.010009765625 4.0894775390625 1.0601806640625 Q 4.074462890625 1.1103515625 4.04736328125 1.1458740234375 Q 4.020263671875 1.181396484375 3.98291015625 1.2041015625 Q 3.945556640625 1.226806640625 3.90087890625 1.2396240234375 Q 3.856201171875 1.25244140625 3.8056640625 1.2572021484375 Q 3.755126953125 1.261962890625 3.70166015625 1.261962890625 L 3.50244140625 1.261962890625 L 3.50244140625 0.010986328125 M 3.72509765625 0.54638671875 Q 3.76318359375 0.54638671875 3.794677734375 0.5372314453125 Q 3.826171875 0.528076171875 3.8485107421875 0.5086669921875 Q 3.870849609375 0.4892578125 3.8829345703125 0.4581298828125 Q 3.89501953125 0.427001953125 3.89501953125 0.383056640625 L 3.89501953125 0.331787109375 Q 3.89501953125 0.287841796875 3.88623046875 0.254150390625 Q 3.87744140625 0.220458984375 3.8572998046875 0.197021484375 Q 3.837158203125 0.173583984375 3.8045654296875 0.1614990234375 Q 3.77197265625 0.1494140625 3.72509765625 0.1494140625 L 3.6884765625 0.1494140625 L 3.6884765625 0.54638671875 L 3.72509765625 0.54638671875 M 3.74267578125 1.130126953125 Q 3.78076171875 1.130126953125 3.8118896484375 1.1202392578125 Q 3.843017578125 1.1103515625 3.8653564453125 1.0894775390625 Q 3.8876953125 1.068603515625 3.8997802734375 1.036376953125 Q 3.911865234375 1.004150390625 3.911865234375 0.960205078125 L 3.911865234375 0.86279296875 Q 3.911865234375 0.81884765625 3.903076171875 0.7847900390625 Q 3.894287109375 0.750732421875 3.8741455078125 0.7276611328125 Q 3.85400390625 0.70458984375 3.82177734375 0.6925048828125 Q 3.78955078125 0.680419921875 3.74267578125 0.680419921875 L 3.6884765625 0.680419921875 L 3.6884765625 1.130126953125 L 3.74267578125 1.130126953125 M 4.269287109375 0.010986328125 L 4.73291015625 0.010986328125 L 4.73291015625 0.160400390625 L 4.458984375 0.160400390625 L 4.458984375 0.53466796875 L 4.670654296875 0.53466796875 L 4.670654296875 0.68408203125 L 4.458984375 0.68408203125 L 4.458984375 1.112548828125 L 4.740234375 1.112548828125 L 4.740234375 1.261962890625 L 4.269287109375 1.261962890625 L 4.269287109375 0.010986328125 M 4.992919921875 0.160400390625 L 4.79150390625 0.160400390625 L 4.79150390625 0.010986328125 L 5.38330078125 0.010986328125 L 5.38330078125 0.160400390625 L 5.1826171875 0.160400390625 L 5.1826171875 1.261962890625 L 4.992919921875 1.261962890625 L 4.992919921875 0.160400390625" fill="#ffffff" fill-rule="nonzero"></path></g><g></g></g><defs><clipPath id="SvgjsClipPath1001"><path d=" M 0.41828454477984467 -4.930469815326201 h 4.567971926065311 v 4.680469815326201 h -4.567971926065311 Z"></path></clipPath><clipPath id="SvgjsClipPath10001b64a9e5-0951-4a7e-806d-09289d263b88"><path d=" M 0.41828454477984467 -4.930469815326201 L 4.986256470845156 -4.930469815326201 L 4.986256470845156 -0.25 L 0.41828454477984467 -0.25 Z"></path></clipPath></defs></svg>